<?xml version="1.0" encoding="UTF-8"?>
<svg width="32px" height="32px" viewBox="0 0 32 32" version="1.1" xmlns="http://www.w3.org/2000/svg">
    <!-- Generator: Sketch 54 (76480) - https://sketchapp.com -->
    <title>清除</title>
    <desc>Created with Sketch.</desc>
    <g id="10-地图" stroke="none" stroke-width="1" fill="none" fill-rule="evenodd">
        <g id="地图" transform="translate(-908.000000, -440.000000)">
            <g id="ribbon" transform="translate(12.000000, 440.000000)">
                <g id="清除" transform="translate(896.000000, 0.000000)">
                    <g id="编组-17" transform="translate(3.000000, 3.000000)">
                        <path d="M9,1 L17,1 L17,4 L9,4 L9,1 Z M4,5 L22,5 L22,25 L4,25 L4,5 Z" id="形状"
                              fill="#FFFFFF"></path>
                        <path d="M8,4 L8,1 C8,0.44771525 8.44771525,1.01453063e-16 9,0 L17,0 C17.5522847,-1.01453063e-16 18,0.44771525 18,1 L18,4 L25.5,4 C25.7761424,4 26,4.22385763 26,4.5 C26,4.77614237 25.7761424,5 25.5,5 L23,5 L23,25 C23,25.5522847 22.5522847,26 22,26 L4,26 C3.44771525,26 3,25.5522847 3,25 L3,5 L0.5,5 C0.223857625,5 3.38176876e-17,4.77614237 0,4.5 C-3.38176876e-17,4.22385763 0.223857625,4 0.5,4 L8,4 Z M9,4 L17,4 L17,1 L9,1 L9,4 Z M22,5 L4,5 L4,25 L22,25 L22,5 Z M12.5,8.5456543 C12.5,8.26951192 12.7238576,8.0456543 13,8.0456543 C13.2761424,8.0456543 13.5,8.26951192 13.5,8.5456543 L13.5,22.5040436 C13.5,22.780186 13.2761424,23.0040436 13,23.0040436 C12.7238576,23.0040436 12.5,22.780186 12.5,22.5040436 L12.5,8.5456543 Z M18,20.5258789 C18,20.8020213 17.7761424,21.0258789 17.5,21.0258789 C17.2238576,21.0258789 17,20.8020213 17,20.5258789 L17,10.5164795 C17,10.2403371 17.2238576,10.0164795 17.5,10.0164795 C17.7761424,10.0164795 18,10.2403371 18,10.5164795 L18,20.5258789 Z M9,20.5258789 C9,20.8020213 8.77614237,21.0258789 8.5,21.0258789 C8.22385763,21.0258789 8,20.8020213 8,20.5258789 L8,10.5164795 C8,10.2403371 8.22385763,10.0164795 8.5,10.0164795 C8.77614237,10.0164795 9,10.2403371 9,10.5164795 L9,20.5258789 Z"
                              id="形状" fill="#5D6D7E" fill-rule="nonzero"></path>
                    </g>
                </g>
            </g>
        </g>
    </g>
</svg>