<?xml version="1.0" encoding="UTF-8"?>
<svg width="32px" height="32px" viewBox="0 0 32 32" version="1.1" xmlns="http://www.w3.org/2000/svg">
    <!-- Generator: Sketch 54 (76480) - https://sketchapp.com -->
    <title>数据下载</title>
    <desc>Created with Sketch.</desc>
    <g id="7-在线" stroke="none" stroke-width="1" fill="none" fill-rule="evenodd">
        <g id="在线" transform="translate(-338.000000, -20.000000)" fill="#F0F0F0" fill-rule="nonzero">
            <g id="7-在线_dark" transform="translate(18.000000, 20.000000)">
                <g id="ribbon">
                    <g id="32-数据下载_dark" transform="translate(320.000000, 0.000000)">
                        <path d="M28,16.7083512 C27.6947886,16.362549 27.360149,16.0433353 27,15.754629 L27,15.2919799 C26.8972346,15.3666152 26.7909699,15.4399532 26.6813193,15.5119622 C26.3810325,15.294917 26.0650792,15.0982068 25.7354787,14.9238508 C26.2314776,14.6376311 26.6565616,14.3286655 27,14.0014252 L27,9.30128272 C25.1474836,10.8899119 20.9194417,12 16,12 C11.0805583,12 6.85251643,10.8899119 5,9.30128272 L5,14 L4.99850485,14 C6.81949178,15.7365811 10.9394409,16.9588679 15.755445,16.9989823 C15.5061673,17.3098425 15.2796215,17.6397154 15.0783286,17.9860799 C10.8744925,17.8585921 7.1624827,16.8625242 5,15.2919799 L5,19 C5,20.7559389 8.8721549,22.5599449 14.0535825,22.9309058 C14.0936482,23.2766402 14.1557564,23.6156552 14.2384653,23.9465091 C10.0870794,23.6920537 6.62716933,22.55185 5,21.0014252 L5,24.2766433 L5.13903519,24.5620344 C6.04813396,26.4280991 10.6124368,28 16,28 C16.2344269,28 16.4672951,27.9970238 16.6983713,27.9911768 C17.0990188,28.3459773 17.5355145,28.6612079 18.0017363,28.9307465 C17.3507722,28.9762922 16.6820308,29 16,29 C10.194501,29 5.35189228,27.2822403 4.24004348,25 L4,24 L4,7.56433105 L4.0012212,7.56486309 C4.00040797,7.54327848 4,7.5216571 4,7.5 C4,5.01471863 9.372583,3 16,3 C22.627417,3 28,5.01471863 28,7.5 C28,7.50424076 27.9999844,7.50848016 27.9999531,7.51271817 L28,13 L28,16.7083512 Z M16,11 C22.1078598,11 27,9.16544742 27,7.5 C27,5.83455258 22.1078598,4 16,4 C9.89214022,4 5,5.83455258 5,7.5 C5,9.16544742 9.89214022,11 16,11 Z M22.5,24.8427954 L24.6285109,22.8395115 C24.8295988,22.6502543 25.146036,22.659845 25.3352932,22.8609328 C25.5245504,23.0620206 25.5149597,23.3784578 25.3138719,23.567715 L22.0088425,26.678299 L18.536068,23.5765243 C18.3301149,23.3925734 18.3122787,23.0764938 18.4962296,22.8705407 C18.6801805,22.6645876 18.9962601,22.6467513 19.2022132,22.8307022 L21.5,24.8830143 L21.5,18.1977539 C21.5,17.9216115 21.7238576,17.6977539 22,17.6977539 C22.2761424,17.6977539 22.5,17.9216115 22.5,18.1977539 L22.5,24.8427954 Z M22,15 C25.8659932,15 29,18.1340068 29,22 C29,25.8659932 25.8659932,29 22,29 C18.1340068,29 15,25.8659932 15,22 C15,18.1340068 18.1340068,15 22,15 Z M22,16 C18.6862915,16 16,18.6862915 16,22 C16,25.3137085 18.6862915,28 22,28 C25.3137085,28 28,25.3137085 28,22 C28,18.6862915 25.3137085,16 22,16 Z" id="形状"></path>
                    </g>
                </g>
            </g>
        </g>
    </g>
</svg>