<?xml version="1.0" encoding="UTF-8"?>
<svg width="32px" height="32px" viewBox="0 0 32 32" version="1.1" xmlns="http://www.w3.org/2000/svg">
    <!-- Generator: Sketch 54 (76480) - https://sketchapp.com -->
    <title>数据下载</title>
    <desc>Created with Sketch.</desc>
    <g id="7-在线" stroke="none" stroke-width="1" fill="none" fill-rule="evenodd">
        <g id="在线" transform="translate(-340.000000, -358.000000)">
            <g id="7-在线" transform="translate(20.000000, 358.000000)">
                <g id="ribbon">
                    <g id="32-数据下载" transform="translate(320.000000, 0.000000)">
                        <g id="下载数据" transform="translate(4.000000, 3.000000)">
                            <path d="M23.4642896,22.4817659 C22.5202159,24.5570829 20.4286136,26 18,26 C17.3417797,26 16.7083147,25.8940095 16.1157414,25.6981645 C14.8320612,25.8934493 13.4458941,26 12,26 C5.372583,26 0.5,23.054317 0.5,20.2928932 L0.5,5.41503906 L0.57323837,5.41503906 C0.524844416,5.25087214 0.5,5.08404361 0.5,4.91503906 C0.5,2.42975769 5.372583,0.415039062 12,0.415039062 C18.627417,0.415039062 24,2.42975769 24,4.91503906 C24,5.08404361 23.9751556,5.25087214 23.9267616,5.41503906 L24,5.41503906 L24,21 C24,21.5159003 23.8124796,22.0135515 23.4642896,22.4817659 L23.4642896,22.4817659 Z"
                                  id="路径" fill="#FFFFFF"></path>
                            <path d="M18,26 C14.1340068,26 11,22.8659932 11,19 C11,15.1340068 14.1340068,12 18,12 C21.8659932,12 25,15.1340068 25,19 C25,22.8659932 21.8659932,26 18,26 Z M18,25 C21.3137085,25 24,22.3137085 24,19 C24,15.6862915 21.3137085,13 18,13 C14.6862915,13 12,15.6862915 12,19 C12,22.3137085 14.6862915,25 18,25 Z M18.4482482,22.0390399 L20.7830734,19.6504906 C20.9761021,19.4530203 21.2926641,19.4494197 21.4901344,19.6424484 C21.6876047,19.8354771 21.6912053,20.1520391 21.4981766,20.3495094 L18.0014229,23.9267232 L14.4780731,20.3509321 C14.2842587,20.1542329 14.2865972,19.8376591 14.4832964,19.6438446 C14.6799956,19.4500302 14.9965694,19.4523687 15.1903839,19.6490679 L17.4497475,21.9420597 L17.4497475,15 C17.4497475,14.7238576 17.6736051,14.5 17.9497475,14.5 C18.2258898,14.5 18.4497475,14.7238576 18.4497475,15 L18.4497475,22 C18.4497475,22.0131387 18.4492407,22.0261591 18.4482456,22.0390426 L18.4482482,22.0390399 Z"
                                  id="形状" fill="#30AD98" fill-rule="nonzero"></path>
                            <path d="M24,13.7083512 C23.6947886,13.362549 23.360149,13.0433353 23,12.754629 L23,12.2919799 C22.8972346,12.3666152 22.7909699,12.4399532 22.6813193,12.5119622 C22.3810325,12.294917 22.0650792,12.0982068 21.7354787,11.9238508 C22.2314776,11.6376311 22.6565616,11.3286655 23,11.0014252 L23,6.30128272 C21.1474836,7.88991189 16.9194417,9 12,9 C7.08055825,9 2.85251643,7.88991189 1,6.30128272 L1,11 L0.998504845,11 C2.81949178,12.7365811 6.9394409,13.9588679 11.755445,13.9989823 C11.5061673,14.3098425 11.2796215,14.6397154 11.0783286,14.9860799 C6.8744925,14.8585921 3.1624827,13.8625242 1,12.2919799 L1,16 C1,17.7559389 4.8721549,19.5599449 10.0535825,19.9309058 C10.0936482,20.2766402 10.1557564,20.6156552 10.2384653,20.9465091 C6.08707944,20.6920537 2.62716933,19.55185 1,18.0014252 L1,21.2766433 L1.13903519,21.5620344 C2.04813396,23.4280991 6.61243682,25 12,25 C12.2344269,25 12.4672951,24.9970238 12.6983713,24.9911768 C13.0990188,25.3459773 13.5355145,25.6612079 14.0017363,25.9307465 C13.3507722,25.9762922 12.6820308,26 12,26 C6.19450102,26 1.35189228,24.2822403 0.240043477,22 L0,21 L0,4.56433105 L0.00122119803,4.56486309 C0.000407974277,4.54327848 0,4.5216571 0,4.5 C0,2.01471863 5.372583,0 12,0 C18.627417,0 24,2.01471863 24,4.5 C24,4.50424076 23.9999844,4.50848016 23.9999531,4.51271817 L24,10 L24,13.7083512 Z M12,8 C18.1078598,8 23,6.16544742 23,4.5 C23,2.83455258 18.1078598,1 12,1 C5.89214022,1 1,2.83455258 1,4.5 C1,6.16544742 5.89214022,8 12,8 Z"
                                  id="形状" fill="#5D6D7E" fill-rule="nonzero"></path>
                        </g>
                    </g>
                </g>
            </g>
        </g>
    </g>
</svg>