<?xml version="1.0" encoding="UTF-8"?>
<svg width="32px" height="32px" viewBox="0 0 32 32" version="1.1" xmlns="http://www.w3.org/2000/svg">
    <!-- Generator: Sketch 54 (76480) - https://sketchapp.com -->
    <title>32-地图</title>
    <desc>Created with Sketch.</desc>
    <g id="21-对象操作" stroke="none" stroke-width="1" fill="none" fill-rule="evenodd">
        <g id="对象操作" transform="translate(-165.000000, -12.000000)">
            <g id="21-对象操作" transform="translate(13.000000, 12.000000)">
                <g id="ribbon">
                    <g id="32-地图" transform="translate(152.000000, 0.000000)">
                        <g id="分组-15" transform="translate(3.000000, 2.000000)">
                            <path d="M25.5,26.5 L25.5,2.5 L5.4757062,2.5 L5.35787435,2.16662304 C5.00773556,1.17598928 4.06807452,0.5 3,0.5 C1.61928813,0.5 0.5,1.61928813 0.5,3 L0.5,24 C0.5,25.3807119 1.61928813,26.5 3,26.5 L25.5,26.5 Z"
                                  id="合并形状" stroke="#5D6D7E" fill="#FFFFFF"></path>
                            <path d="M7,21 C7,21 7,15.3333333 7,4 L12,4 C14.6666667,5.33333333 16,6.66666667 16,8 C16,8.8632085 13.4187891,8.95302713 12,12.5 C10,17.5 7,21 7,21 Z M15,17 C15,19 15,20.3333333 15,21 C15,21.6666667 14.6666667,23 14,25 C12,24.3333333 11,23.3333333 11,22 C11,20.6666667 12.3333333,19 15,17 Z M24,9 L24,25 L20,25 C17.6666667,22.3333333 17.3333333,20 19,18 C20.6666667,16 20.6666667,14.6666667 19,14 L24,9 Z"
                                  id="合并形状" fill="#30AD98"></path>
                            <path d="M6,24 L5,24 C5,22.8954305 4.1045695,22 3,22 C1.8954305,22 1,22.8954305 1,24 L0,24 C0,22.3431458 1.34314575,21 3,21 C3.76835444,21 4.46924351,21.2888536 5,21.7638935 L5,2 L6,2 L6,23 L5.82929429,23 C5.93984578,23.3127789 6,23.6493646 6,24 Z"
                                  id="合并形状" fill="#5D6D7E" fill-rule="nonzero"></path>
                        </g>
                    </g>
                </g>
            </g>
        </g>
    </g>
</svg>