<?xml version="1.0" standalone="no"?><!DOCTYPE svg PUBLIC "-//W3C//DTD SVG 1.1//EN"
        "http://www.w3.org/Graphics/SVG/1.1/DTD/svg11.dtd">
<svg t="1607066689602" class="icon" viewBox="0 0 1024 1024" version="1.1" xmlns="http://www.w3.org/2000/svg" p-id="1678"
     xmlns:xlink="http://www.w3.org/1999/xlink" width="200" height="200">
    <defs>
        <style type="text/css"></style>
    </defs>
    <path d="M512.041956 69.980841c-244.899686 0-443.811991 198.565405-443.811992 443.617563 0 244.98769 198.912305 443.575608 443.811992 443.575608 245.073648 0 443.72808-198.587917 443.72808-443.575608 0-245.051135-198.654432-443.617563-443.72808-443.617563zM234.643088 791.666514c0.690732 8.577353-5.730515 15.129582-14.308891 15.129582l-1.573845 0c-7.995091 0-14.741749-4.224208-15.537881-12.370748-11.874445-132.320655 29.955242-225.029126 67.301826-280.373619 13.44829-20.10592 27.240411-36.204573 39.717583-49.372478-3.146667-7.088442-4.869914-14.805194-4.869914-23.122626 0-32.152281 26.205848-58.0583 58.358129-58.058301 32.348756 0 58.274218 26.077935 58.274218 58.230216 0 32.346709-25.925463 58.402131-58.274218 58.402131-12.368702 0-23.832801-3.879354-33.359782-10.473539-11.011798 11.766998-22.972201 25.622564-34.609239 43.144636-49.523927 74.024947-70.234621 160.680563-61.117986 258.864746zm126.501112-170.528861c-13.251815 0-26.721595-1.486864-39.543621-4.331655-8.469905-2.003634-13.514805-10.431583-11.788488-18.749017 2.068102-8.491395 10.301623-13.792121 18.749017-11.788487 10.559497 2.436492 21.548782 3.640923 32.583092 3.640923 79.953983 0 144.908344-64.952314 144.908344-144.731312 0-79.782068-64.954361-144.733359-144.908344-144.733359-79.778998 0-144.819317 64.952314-144.819316 144.733359 0 23.14514 5.302773 45.448098 15.884782 65.986877 4.071735 7.628748 1.013073 17.089214-6.876618 20.99108-7.693216 4.093225-16.980743 1.055029-20.966521-6.682189-12.737092-24.609491-19.331277-52.538587-19.331277-80.295768 0-97.106642 78.982866-176.11202 176.109974-176.11202 97.215112 0 176.197978 79.004355 176.197977 176.11202-0.001023 96.976682-78.983889 175.959547-176.199001 175.959548zM688.692235 416.386362c-15.623839 0.366344-31.484062-2.952238-45.709042-9.740852-49.780777-23.620977-71.02973-83.314521-47.368844-133.074831 23.576975-49.760311 83.358523-71.009264 133.1393-47.346331 49.760311 23.574928 71.009264 83.442434 47.240931 133.00934-3.471055 6.874571-7.284917 13.362332-11.938914 19.267832-2.974751 3.791349-8.66331 4.524037-12.498662 1.465374-3.837398-3.016707-4.440126-8.66331-1.379416-12.479219 3.835352-4.762467 7.088442-10.235109 9.674336-15.881712 19.547195-40.816614 2.219551-90.017176-38.81298-109.262496-40.944528-19.523659-89.950661-2.15406-109.281939 38.921451-19.653619 40.883129-2.261507 89.86675 38.768978 109.348454 11.852956 5.602601 24.717961 8.361435 37.627993 7.823176 4.956895-0.064468 9.116635 3.770883 9.202592 8.683776 0.23536 4.933359-3.641947 9.005095-8.664333 9.266038zm138.461515 66.416666c-70.663386-26.097378-108.549252-70.318532-127.817084-102.924138a217.599923 217.599923 0 0 1-15.623839-32.541137c-4.568039-0.044002-8.878205-1.293459-13.0799-3.104711-16.745383-7.995091-23.662933-27.584242-15.753799-44.135196 7.779174-16.48444 27.454282-23.48897 44.049239-15.60235 16.464997 7.886621 23.403013 27.584242 15.665794 44.049239-3.016707 6.249331-7.865131 11.269671-13.511735 14.394848 3.471055 8.66331 7.975649 18.276249 14.139022 28.53387 25.816992 43.447535 65.643046 75.275427 118.009717 94.606705 4.697999 1.809205 6.940063 6.768147 5.388731 11.378141-0.10847 0.388856-0.301875 0.582261-0.301876 0.862647-2.070148 4.052293-6.724145 6.055926-11.16427 4.482082z"
          p-id="1679" fill="#1296db"></path>
</svg>