<?xml version="1.0" encoding="UTF-8"?>
<svg width="32px" height="32px" viewBox="0 0 32 32" version="1.1" xmlns="http://www.w3.org/2000/svg">
    <!-- Generator: Sketch 54 (76480) - https://sketchapp.com -->
    <title>地图裁剪</title>
    <desc>Created with Sketch.</desc>
    <g id="10-地图" stroke="none" stroke-width="1" fill="none" fill-rule="evenodd">
        <g id="地图" transform="translate(-268.000000, -440.000000)">
            <g id="ribbon" transform="translate(12.000000, 440.000000)">
                <g id="32-地图裁剪" transform="translate(256.000000, 0.000000)">
                    <g id="分组-15" transform="translate(2.000000, 3.000000)">
                        <rect id="矩形" fill="#FFFFFF" x="0" y="0" width="26" height="26" rx="1.5"></rect>
                        <path d="M2,21 L5.70878148,21 C5.24329232,21.9619362 4.70293131,23.0284798 4,24 C3.73900614,24.3607192 3.07233947,24.3607192 2,24 L2,21 L2,21 Z M2,18 L2,2 L12,2 C14.6666667,4 16,5.66666667 16,7 C16,7.8632085 13.4187891,7.95302713 12,11.5 C11.1656641,13.5858397 10.6762509,17.3085226 7.74264069,18 L2,18 Z M15,18 L12.667979,18 C13.2779965,17.375164 14.0553368,16.7084974 15,16 L15,18 L15,18 Z M14.8660254,21 C14.7113249,21.7320508 14.4226497,22.7320508 14,24 C12,23.3333333 11,22.3333333 11,21 L14.8660254,21 L14.8660254,21 Z M24,18 L21,18 L21,11 L24,8 L24,18 Z M24,21 L21,21 L21,24 L24,24 L24,21 Z M21,21 L24,21 L24,24 L21,24 L21,21 Z"
                              id="形状" fill="#ACB4C0"></path>
                        <path d="M1,21.1420898 L1,25 L18,25 L18,26 L1,26 C0.44771525,26 0,25.5522847 0,25 L0,21.1420898 L1,21.1420898 Z M1,18 L0,18 L0,1 C0,0.44771525 0.44771525,0 1,0 L25,0 C25.5522847,-1.11022302e-16 26,0.44771525 26,1 L26,18 L25,18 L25,1 L1,1 L1,18 Z"
                              id="形状" fill="#5D6D7E" fill-rule="nonzero"></path>
                        <path d="M25,20.7051235 L20.6808613,25 L25,25 L25,20.7051235 L25,20.7051235 Z M20,24.2667896 L24.2908931,20 L20,20 L20,24.2667896 L20,24.2667896 Z M26,19 L26,25 L27,25 L27,26 L26,26 L26,27 L25,27 L25,26 L19,26 L19,20 L0,20 L0,19 L19,19 L19,0 L20,0 L20,19 L26,19 Z"
                              id="形状" fill="#27A2DF" fill-rule="nonzero"></path>
                    </g>
                </g>
            </g>
        </g>
    </g>
</svg>