<?xml version="1.0" encoding="UTF-8"?>
<svg width="32px" height="32px" viewBox="0 0 32 32" version="1.1" xmlns="http://www.w3.org/2000/svg">
    <!-- Generator: Sketch 54 (76480) - https://sketchapp.com -->
    <title>Scene</title>
    <desc>Created with Sketch.</desc>
    <g id="1-开始" stroke="none" stroke-width="1" fill="none" fill-rule="evenodd">
        <g id="开始" transform="translate(-314.000000, -12.000000)">
            <g id="Ribbon" transform="translate(10.000000, 12.000000)">
                <g id="场景" transform="translate(304.000000, 0.000000)">
                    <g id="分组" transform="translate(2.000000, 3.000000)">
                        <path d="M22.307148,21 C22.6719416,20.6966262 23.0198713,20.3736696 23.3493237,20.0327437 L28,26 L0,26 L4.65067626,20.0327437 C4.98012872,20.3736696 5.32805843,20.6966262 5.69285198,21 L5.04893109,21 L1.93146739,25 L26.0685326,25 L22.9510689,21 L22.307148,21 Z"
                              id="形状结合" fill="#5D6D7E" fill-rule="nonzero"></path>
                        <circle id="椭圆形" fill="#FFFFFF" cx="14" cy="11" r="11"></circle>
                        <path d="M7.78408333,13.0907424 C8.78325,13.664528 10.0574167,14.0018332 10.0574167,14.0018332 C8.15808333,15.6498625 7.82075,17.4436297 7.7795,18.31989 C6.88208333,17.324473 6.1845,16.1228231 5.74908333,14.7910174 C5.75366667,13.2153987 6.07908333,11.5692026 6.07908333,11.5692026 C6.07908333,11.5692026 6.94991667,12.6113657 7.78408333,13.0907424 L7.78408333,13.0907424 Z M20.0005,11.2648946 C21.4195,13.8496792 19.8923333,14.1915674 18.57875,16.7387718 C17.14325,19.5233731 16.87375,16.4344638 16.87375,16.4344638 C17.15975,10.6581118 14.5298333,10.2016499 13.7506667,10.0494959 C12.9678333,9.89734189 12.3289167,9.8203483 12.3289167,8.83226398 C12.3289167,7.84417965 13.5728333,7.50229148 14.0339167,7.61686526 C14.495,7.72868928 15.0990833,6.0568286 13.4646667,5.18423465 C11.8320833,4.30797434 11.26375,5.90467461 10.9099167,7.31255729 C10.55425,8.71952337 9.91441667,8.33822181 9.77141667,6.70394134 C9.63116667,5.06874427 9.24066667,6.32447296 8.91983333,7.00824931 C8.60083333,7.69202566 6.78858333,8.527956 6.64833333,7.92117324 C6.55941667,7.53987168 6.69233333,6.68010999 6.80508333,6.09257562 C8.44133333,3.52337305 11.1959167,1.83776352 14.3171667,1.83776352 C17.7051667,1.83776352 20.6531667,3.82584785 22.2179167,6.76718607 C22.3774167,8.20439963 21.6935833,9.49679193 20.8520833,9.7451879 C19.82175,10.0494959 20.0005,11.2648946 20.0005,11.2648946 L20.0005,11.2648946 Z M14.0009167,0.861594867 C8.39916667,0.861594867 3.85891667,5.39963336 3.85891667,11 C3.85891667,16.6012832 8.39916667,21.1411549 14.0009167,21.1411549 C19.5999167,21.1411549 24.1401667,16.6012832 24.1401667,11 C24.1401667,5.39963336 19.5999167,0.861594867 14.0009167,0.861594867 L14.0009167,0.861594867 Z M14.0009167,22 C7.92433333,22 3,17.0742438 3,11 C3,4.92667278 7.92433333,0 14.0009167,0 C20.07475,0 25,4.92667278 25,11 C25,17.0742438 20.07475,22 14.0009167,22 L14.0009167,22 Z"
                              id="Fill" fill="#30AD98"></path>
                        <path d="M5.69285198,21 C7.94548851,22.8733636 10.8411742,24 14,24 C17.1588258,24 20.0545115,22.8733636 22.307148,21 L22.9510689,21 L26.0685326,25 L1.93146739,25 L5.04893109,21 L5.69285198,21 Z"
                              id="形状结合" fill="#FFFFFF"></path>
                    </g>
                </g>
            </g>
        </g>
    </g>
</svg>